# xmcd CD database file
#
# Track frame offsets:
#	182
#	13540
#	26657
#	44722
#	57250
#	73582
#	95907
#	106280
#	121667
#	137037
#
# Disc length: 2131 seconds
#
# Revision: 0
# Processed by: cddbd v1.5.1PL2 Copyright (c) Steve Scherf et al.
# Submitted via: CDex 1.51
#
DISCID=8a08510a
DTITLE=Lazy Poker Blues Band - Dealin' With Feeling
DYEAR=1984
DGENRE=Blues
TTITLE0=Hard Times
TTITLE1=Sireen
TTITLE2=I'd Rather Go Down
TTITLE3=Runaway
TTITLE4=I Can't Close
TTITLE5=Hook, Line and Sinker
TTITLE6=Jack Of All Trades
TTITLE7=We Don't Care
TTITLE8=Money - Pullation
TTITLE9=Message
EXTD=YEAR: 1984
EXTT0=
EXTT1=
EXTT2=
EXTT3=
EXTT4=
EXTT5=
EXTT6=
EXTT7=
EXTT8=
EXTT9=
PLAYORDER=
